<svg xmlns="http://www.w3.org/2000/svg" xmlns:xlink="http://www.w3.org/1999/xlink" version="1.1" width="1000" height="1000" viewBox="0 0 1000 1000" xml:space="preserve">
<desc>Created with Fabric.js 3.5.0</desc>
<defs>
</defs>
<rect x="0" y="0" width="100%" height="100%" fill="#ffffff"/>
<g transform="matrix(4 0 0 5 500 500)" id="252166">
<g style="" vector-effect="non-scaling-stroke">
		<g transform="matrix(1 0 0 1 0 0)">
<rect style="stroke: none; stroke-width: 1; stroke-dasharray: none; stroke-linecap: butt; stroke-dashoffset: 0; stroke-linejoin: miter; stroke-miterlimit: 4; is-custom-font: none; font-file-url: none; fill: rgb(18,18,18); fill-rule: nonzero; opacity: 1;" x="-125" y="-100" rx="0" ry="0" width="250" height="200"/>
</g>
		<g transform="matrix(1 0 0 1 5.5 0)">
<path style="stroke: none; stroke-width: 1; stroke-dasharray: none; stroke-linecap: butt; stroke-dashoffset: 0; stroke-linejoin: miter; stroke-miterlimit: 4; is-custom-font: none; font-file-url: none; fill: rgb(255,255,255); fill-rule: evenodd; opacity: 1;" transform=" translate(-130.5, -100)" d="M 207 65 C 210.866 65 214 68.134 214 72 C 214 75.866 210.866 79 207 79 H 167 C 170.866 79 174 82.134 174 86 C 174 89.866 170.866 93 167 93 H 189 C 192.866 93 196 96.134 196 100 C 196 103.866 192.866 107 189 107 H 178.826 C 173.952 107 170 110.134 170 114 C 170 116.577 172 118.911 176 121 C 179.866 121 183 124.134 183 128 C 183 131.866 179.866 135 176 135 H 93 C 89.134 135 86 131.866 86 128 C 86 124.134 89.134 121 93 121 H 54 C 50.134 121 47 117.866 47 114 C 47 110.134 50.134 107 54 107 H 94 C 97.866 107 101 103.866 101 100 C 101 96.134 97.866 93 94 93 H 69 C 65.134 93 62 89.866 62 86 C 62 82.134 65.134 79 69 79 H 109 C 105.134 79 102 75.866 102 72 C 102 68.134 105.134 65 109 65 H 207 Z M 207 93 C 210.866 93 214 96.134 214 100 C 214 103.866 210.866 107 207 107 C 203.134 107 200 103.866 200 100 C 200 96.134 203.134 93 207 93 Z" stroke-linecap="round"/>
</g>
		<g transform="matrix(1 0 0 1 1.0587 7.1636)">
<path style="stroke: none; stroke-width: 1; stroke-dasharray: none; stroke-linecap: butt; stroke-dashoffset: 0; stroke-linejoin: miter; stroke-miterlimit: 4; is-custom-font: none; font-file-url: none; fill: rgb(232,240,254); fill-rule: evenodd; opacity: 1;" transform=" translate(-126.0587, -107.1636)" d="M 153.672 64 L 162.974 131.843 L 163.809 138.649 C 164.079 140.842 162.519 142.837 160.327 143.107 L 101.767 150.297 C 99.5739 150.566 97.5781 149.007 97.3089 146.814 L 88.2931 73.3868 C 88.1585 72.2904 88.9381 71.2925 90.0345 71.1579 C 90.0414 71.1571 90.0483 71.1563 90.0553 71.1555 L 94.9136 70.6105 M 98.8422 70.1698 L 103.429 69.6553 L 98.8422 70.1698 Z" stroke-linecap="round"/>
</g>
		<g transform="matrix(1 0 0 1 1.0589 7.1638)">
<path style="stroke: none; stroke-width: 1; stroke-dasharray: none; stroke-linecap: butt; stroke-dashoffset: 0; stroke-linejoin: miter; stroke-miterlimit: 4; is-custom-font: none; font-file-url: none; fill: rgb(31,100,231); fill-rule: nonzero; opacity: 1;" transform=" translate(-126.0588, -107.1637)" d="M 154.91 63.8302 C 154.817 63.1463 154.186 62.6678 153.502 62.7616 C 152.818 62.8554 152.34 63.4859 152.433 64.1698 L 154.91 63.8302 Z M 162.974 131.843 L 164.214 131.69 C 164.214 131.685 164.213 131.679 164.212 131.673 L 162.974 131.843 Z M 163.809 138.649 L 165.05 138.497 L 163.809 138.649 Z M 160.327 143.107 L 160.479 144.347 L 160.327 143.107 Z M 101.767 150.297 L 101.919 151.538 L 101.767 150.297 Z M 97.3089 146.814 L 98.5496 146.662 L 97.3089 146.814 Z M 90.0553 71.1555 L 90.1946 72.3977 L 90.0553 71.1555 Z M 95.053 71.8527 C 95.739 71.7758 96.2328 71.1572 96.1558 70.4712 C 96.0789 69.7851 95.4603 69.2913 94.7743 69.3683 L 95.053 71.8527 Z M 98.7028 68.9276 C 98.0168 69.0046 97.523 69.6231 97.5999 70.3092 C 97.6769 70.9952 98.2954 71.489 98.9815 71.412 L 98.7028 68.9276 Z M 103.569 70.8975 C 104.255 70.8205 104.748 70.202 104.671 69.5159 C 104.594 68.8299 103.976 68.3361 103.29 68.4131 L 103.569 70.8975 Z M 152.433 64.1698 L 161.735 132.013 L 164.212 131.673 L 154.91 63.8302 L 152.433 64.1698 Z M 161.733 131.995 L 162.569 138.801 L 165.05 138.497 L 164.214 131.69 L 161.733 131.995 Z M 162.569 138.801 C 162.754 140.309 161.682 141.681 160.174 141.866 L 160.479 144.347 C 163.357 143.994 165.404 141.375 165.05 138.497 L 162.569 138.801 Z M 160.174 141.866 L 101.614 149.056 L 101.919 151.538 L 160.479 144.347 L 160.174 141.866 Z M 101.614 149.056 C 100.107 149.241 98.7347 148.169 98.5496 146.662 L 96.0682 146.967 C 96.4216 149.845 99.041 151.891 101.919 151.538 L 101.614 149.056 Z M 98.5496 146.662 L 89.5338 73.2344 L 87.0524 73.5391 L 96.0682 146.967 L 98.5496 146.662 Z M 89.5338 73.2344 C 89.4833 72.8233 89.7757 72.4491 90.1868 72.3986 L 89.8821 69.9173 C 88.1006 70.136 86.8337 71.7576 87.0524 73.5391 L 89.5338 73.2344 Z M 90.1868 72.3986 C 90.1894 72.3983 90.192 72.398 90.1946 72.3977 L 89.9159 69.9133 C 89.9046 69.9145 89.8934 69.9159 89.8821 69.9173 L 90.1868 72.3986 Z M 90.1946 72.3977 L 95.053 71.8527 L 94.7743 69.3683 L 89.9159 69.9133 L 90.1946 72.3977 Z M 98.9815 71.412 L 103.569 70.8975 L 103.29 68.4131 L 98.7028 68.9276 L 98.9815 71.412 Z" stroke-linecap="round"/>
</g>
		<g transform="matrix(1 0 0 1 1.4719 7.3455)">
<path style="stroke: none; stroke-width: 1; stroke-dasharray: none; stroke-linecap: butt; stroke-dashoffset: 0; stroke-linejoin: miter; stroke-miterlimit: 4; is-custom-font: none; font-file-url: none; fill: rgb(117,164,254); fill-rule: evenodd; opacity: 1;" transform=" translate(-126.4719, -107.3455)" d="M 151.14 68.2692 L 159.56 129.753 L 160.317 135.921 C 160.561 137.908 159.167 139.715 157.203 139.956 L 104.761 146.395 C 102.798 146.636 101.008 145.22 100.764 143.233 L 92.6141 76.8568 C 92.4795 75.7605 93.2592 74.7626 94.3555 74.628 L 100.843 73.8314" stroke-linecap="round"/>
</g>
		<g transform="matrix(1 0 0 1 15.172 -8)">
<path style="stroke: rgb(31,100,231); stroke-width: 2.5; stroke-dasharray: none; stroke-linecap: butt; stroke-dashoffset: 0; stroke-linejoin: miter; stroke-miterlimit: 4; is-custom-font: none; font-file-url: none; fill: rgb(255,255,255); fill-rule: nonzero; opacity: 1;" transform=" translate(-140.172, -92)" d="M 107.922 54 C 107.922 52.4812 109.153 51.25 110.672 51.25 H 156.229 C 156.958 51.25 157.657 51.5395 158.173 52.0549 L 171.616 65.4898 C 172.132 66.0056 172.422 66.7053 172.422 67.4349 V 130 C 172.422 131.519 171.191 132.75 169.672 132.75 H 110.672 C 109.153 132.75 107.922 131.519 107.922 130 V 54 Z" stroke-linecap="round"/>
</g>
		<g transform="matrix(1 0 0 1 37.1385 -40.2986)">
<path style="stroke: rgb(31,100,231); stroke-width: 2.5; stroke-dasharray: none; stroke-linecap: round; stroke-dashoffset: 0; stroke-linejoin: round; stroke-miterlimit: 4; is-custom-font: none; font-file-url: none; fill: rgb(31,100,231); fill-rule: nonzero; opacity: 1;" transform=" translate(-162.1385, -59.7014)" d="M 156.672 52.4028 V 64 C 156.672 65.6569 158.015 67 159.672 67 H 167.605" stroke-linecap="round"/>
</g>
		<g transform="matrix(1 0 0 1 14.5 -7.5)">
<path style="stroke: rgb(117,164,254); stroke-width: 2.5; stroke-dasharray: none; stroke-linecap: round; stroke-dashoffset: 0; stroke-linejoin: round; stroke-miterlimit: 4; is-custom-font: none; font-file-url: none; fill: rgb(255,0,0); fill-rule: nonzero; opacity: 1;" transform=" translate(-139.5, -92.5)" d="M 118 118 H 144 M 118 67 H 144 H 118 Z M 118 79 H 161 H 118 Z M 118 92 H 161 H 118 Z M 118 105 H 161 H 118 Z" stroke-linecap="round"/>
</g>
</g>
</g>
</svg>